M48
; DRILL file {KiCad (5.1.6)-1} date 10/12/20 12:11:08
; FORMAT={-:-/ absolute / metric / decimal}
; #@! TF.CreationDate,2020-10-12T12:11:08+03:00
; #@! TF.GenerationSoftware,Kicad,Pcbnew,(5.1.6)-1
; #@! TF.FileFunction,Plated,1,4,PTH
FMAT,2
METRIC
T1C0.300
T2C0.400
T3C0.440
T4C0.500
T5C0.600
T6C1.000
T7C1.100
T8C1.200
T9C1.350
T10C2.700
T11C3.200
T12C5.000
%
G90
G05
T1
X33.29Y-108.02
X33.98Y-112.87
X34.3Y-103.9
X34.319Y-117.919
X34.93Y-110.92
X35.062Y-108.6
X36.55Y-116.6
X37.29Y-117.41
X37.54Y-118.33
X37.56Y-102.98
X37.675Y-108.4
X37.675Y-109.15
X37.675Y-109.9
X37.675Y-110.65
X38.425Y-108.4
X38.425Y-109.15
X38.425Y-109.9
X38.425Y-110.65
X39.05Y-113.15
X39.06Y-116.7
X39.175Y-108.4
X39.175Y-109.15
X39.175Y-109.9
X39.175Y-110.65
X40.2Y-112.9
X40.49Y-116.7
X41.05Y-124.4
X41.12Y-111.71
X41.175Y-109.44
X41.196Y-121.004
X41.65Y-112.49
X43.32Y-105.18
X43.33Y-105.82
X44.8Y-122.4
X45.9Y-104.8
X62.05Y-108.65
X63.821Y-117.629
X74.05Y-122.65
X74.05Y-123.4
X74.05Y-124.15
X74.05Y-124.9
X74.05Y-125.65
X74.8Y-122.65
X74.8Y-123.4
X74.8Y-124.15
X74.8Y-124.9
X74.8Y-125.65
X75.55Y-122.65
X75.55Y-123.4
X75.55Y-124.15
X75.55Y-124.9
X75.55Y-125.65
X76.3Y-122.65
X76.3Y-123.4
X76.3Y-124.15
X76.3Y-124.9
X76.3Y-125.65
X80.82Y-110.11
X83.55Y-118.9
X83.55Y-119.65
X83.55Y-120.4
X87.05Y-110.15
X87.05Y-118.9
X87.05Y-119.65
X87.05Y-120.4
X87.8Y-110.15
X88.2Y-117.47
X88.55Y-110.15
X90.3Y-111.65
X92.05Y-111.65
X93.28Y-115.47
X93.3Y-112.15
X94.8Y-112.15
X96.675Y-115.65
X96.675Y-116.4
X96.675Y-117.15
X96.69Y-114.45
X97.425Y-115.65
X97.425Y-116.4
X97.425Y-117.15
X99.3Y-110.275
X99.3Y-111.025
X100.43Y-111.7
X101.25Y-115.89
X103.05Y-112.9
X103.11Y-115.99
X105.58Y-115.88
X107.55Y-113.9
X110.3Y-114.9
X110.33Y-112.85
X110.41Y-116.94
X111.3Y-108.4
X112.05Y-113.9
X112.3Y-111.15
X112.8Y-113.9
X113.3Y-108.4
X113.344Y-116.591
X114.3Y-114.9
X115.3Y-108.4
X115.31Y-117.5
X116.452Y-111.03
X116.8Y-113.9
X117.3Y-108.4
X117.55Y-113.9
X119.09Y-122.46
X119.3Y-108.4
X119.55Y-116.4
X120.372Y-111.069
X120.8Y-115.65
X121.07Y-114.3
X121.3Y-108.4
X122.02Y-118.19
X122.06Y-117.37
X122.51Y-122.58
X122.92Y-113.79
X123.17Y-110.21
X123.3Y-115.65
X124.95Y-118.62
X125.53Y-107.56
X128.699Y-111.56
X131.47Y-115.26
X131.484Y-119.11
X132.813Y-119.12
X133.809Y-117.14
X133.87Y-114.34
X138.53Y-122.06
X138.8Y-113.12
X139.558Y-122.612
X140.88Y-114.39
X142.895Y-113.685
X145.71Y-117.83
X146.07Y-112.65
X149.03Y-123.88
X152.11Y-124.85
X152.3Y-96.65
X152.3Y-101.4
X155.55Y-110.4
X155.694Y-119.113
X156.3Y-110.4
X156.6Y-119.07
X157.05Y-110.4
X157.75Y-118.09
X157.93Y-116.61
X158.59Y-117.24
X158.92Y-124.65
X158.972Y-114.382
X159.05Y-110.41
X159.79Y-113.58
X160.55Y-110.39
X160.591Y-114.43
X161.49Y-124.08
X162.279Y-118.578
X162.571Y-120.117
X162.68Y-117.933
X162.86Y-122.18
X162.97Y-119.36
X163.131Y-120.64
X163.466Y-117.757
X163.618Y-121.989
X163.661Y-121.23
X163.88Y-116.344
X164.24Y-123.17
X164.33Y-126.58
X164.905Y-117.57
X165.12Y-111.37
X165.516Y-118.023
X165.71Y-115.598
X165.77Y-116.45
X166.3Y-118.9
X166.49Y-126.65
X167.93Y-116.29
X168.323Y-121.087
X168.487Y-115.729
X168.99Y-115.16
X169.95Y-112.17
X170.12Y-126.68
X170.225Y-115.603
X172.33Y-126.68
X173.01Y-115.28
X173.041Y-121.37
X173.082Y-120.611
X173.56Y-116.62
X173.743Y-120.237
X173.819Y-114.92
X174.02Y-121.37
X174.15Y-108.13
X175.3Y-107.15
X176.05Y-107.15
X176.3Y-110.65
X176.34Y-113.4
X177.05Y-107.15
X177.8Y-107.15
X178.47Y-112.89
X178.49Y-112.17
X178.59Y-121.37
X178.67Y-118.14
X179.31Y-107.96
X179.782Y-116.05
X180.308Y-110.688
X181.31Y-107.96
X181.54Y-117.73
X182.39Y-113.81
X183.29Y-107.97
X183.8Y-115.9
X184.338Y-110.688
X184.55Y-115.9
X185.2Y-122.525
X185.29Y-107.97
X186.481Y-123.111
X187.28Y-107.97
X187.425Y-116.65
X187.425Y-117.525
X188.272Y-110.688
X188.399Y-122.16
X189.211Y-108.059
X189.37Y-122.2
X189.78Y-118.11
X190.7Y-117.51
X191.49Y-111.77
X192.48Y-114.43
X192.81Y-95.72
X193.55Y-108.15
X194.398Y-106.85
X197.662Y-121.24
X199.99Y-125.95
X200.48Y-120.68
X203.06Y-125.93
X206.05Y-120.83
X206.32Y-125.93
X213.52Y-112.73
X214.05Y-110.4
X214.8Y-110.4
X215.55Y-110.4
X219.8Y-96.9
X219.8Y-101.4
X245.97Y-113.39
X245.99Y-112.67
X245.99Y-115.14
X246.8Y-108.3
X247.812Y-111.188
X248.775Y-108.3
X249.944Y-115.052
X250.8Y-108.275
X251.737Y-111.188
X251.925Y-114.275
X252.55Y-114.275
X252.775Y-108.275
X254.8Y-108.3
X254.925Y-117.4
X254.925Y-118.275
X255.787Y-111.188
X256.746Y-108.354
X259.54Y-108.35
X261.3Y-106.9
T2
X43.3Y-114.15
X43.3Y-115.65
X43.3Y-117.15
X43.3Y-118.65
X43.8Y-113.4
X43.8Y-114.9
X43.8Y-116.4
X43.8Y-117.9
X43.8Y-119.4
X44.21Y-103.46
X46.05Y-108.4
X46.05Y-109.65
X46.05Y-110.9
X47.05Y-108.4
X47.05Y-109.65
X47.05Y-110.9
X48.05Y-108.4
X48.05Y-109.65
X48.05Y-110.9
X49.05Y-114.65
X49.05Y-116.15
X49.05Y-117.65
X49.05Y-119.15
X49.05Y-120.65
X49.05Y-122.15
X49.55Y-113.9
X49.55Y-115.4
X49.55Y-116.9
X49.55Y-118.4
X49.55Y-119.9
X49.55Y-121.4
X49.55Y-122.9
X51.3Y-106.9
X51.3Y-108.15
X51.3Y-109.4
X52.3Y-106.9
X52.3Y-108.15
X52.3Y-109.4
X53.3Y-106.9
X53.3Y-108.15
X53.3Y-109.4
X54.3Y-106.9
X54.3Y-108.15
X54.3Y-109.4
X55.05Y-113.15
X55.05Y-114.65
X55.05Y-116.15
X55.05Y-117.65
X55.05Y-119.15
X55.05Y-120.65
X55.05Y-122.15
X55.55Y-113.9
X55.55Y-115.4
X55.55Y-116.9
X55.55Y-118.4
X55.55Y-119.9
X55.55Y-121.4
X55.55Y-122.9
X55.57Y-111.75
X57.3Y-107.4
X57.3Y-108.65
X57.3Y-109.9
X58.3Y-107.4
X58.3Y-108.65
X58.3Y-109.9
X59.05Y-114.4
X59.3Y-107.4
X59.3Y-108.65
X59.3Y-109.9
X60.05Y-114.4
X60.3Y-107.4
X60.3Y-108.65
X60.3Y-109.9
X60.8Y-101.9
X60.8Y-103.9
X61.05Y-114.4
X62.3Y-123.75
X62.3Y-124.75
X62.3Y-125.74
X62.8Y-101.15
X62.8Y-102.9
X62.8Y-104.9
X63.14Y-123.75
X63.14Y-124.75
X63.14Y-125.731
X64.8Y-101.9
X64.8Y-103.9
X64.8Y-105.9
X64.8Y-107.9
X66.8Y-101.4
X66.8Y-102.9
X66.8Y-104.9
X66.8Y-106.9
X66.8Y-108.9
X68.8Y-101.9
X68.8Y-103.9
X68.8Y-105.9
X68.8Y-107.9
X70.8Y-101.15
X70.8Y-102.9
X70.8Y-104.9
X70.8Y-106.9
X70.8Y-108.9
X72.8Y-101.9
X72.8Y-103.9
X72.8Y-105.9
X72.8Y-107.9
X74.8Y-101.15
X74.8Y-102.9
X74.8Y-104.9
X74.8Y-106.9
X74.8Y-108.9
X76.8Y-101.9
X76.8Y-103.9
X76.8Y-105.9
X76.8Y-107.9
X78.8Y-101.15
X78.8Y-102.9
X78.8Y-104.9
X78.8Y-106.9
X78.8Y-108.9
X84.8Y-96.9
X84.8Y-101.15
X90.8Y-101.15
X90.8Y-102.9
X90.8Y-104.9
X90.8Y-106.9
X90.8Y-108.9
X92.8Y-101.9
X92.8Y-103.9
X92.8Y-105.9
X92.8Y-107.9
X94.8Y-101.15
X94.8Y-102.9
X94.8Y-104.9
X94.8Y-106.9
X94.8Y-108.9
X96.8Y-101.9
X96.8Y-103.9
X96.8Y-105.9
X96.8Y-107.9
X98.8Y-101.15
X98.8Y-102.9
X98.8Y-104.9
X98.8Y-106.9
X98.8Y-108.9
X100.8Y-101.9
X100.8Y-103.9
X100.8Y-105.9
X102.8Y-101.15
X102.8Y-102.9
X102.8Y-104.9
X112.8Y-72.4
X112.8Y-73.4
X112.8Y-74.4
X128.19Y-101.9
X128.19Y-103.9
X130.19Y-100.9
X130.19Y-102.9
X130.19Y-104.9
X132.19Y-101.9
X132.19Y-103.9
X132.19Y-105.9
X132.19Y-107.9
X134.19Y-101.4
X134.19Y-102.9
X134.19Y-104.9
X134.19Y-106.9
X134.19Y-108.24
X136.19Y-101.9
X136.19Y-103.9
X136.19Y-105.9
X136.19Y-107.9
X138.19Y-100.9
X138.19Y-102.9
X138.19Y-104.9
X138.19Y-106.9
X138.19Y-108.24
X140.19Y-101.9
X140.19Y-103.9
X140.19Y-105.9
X140.19Y-107.9
X142.159Y-108.24
X142.19Y-100.9
X142.19Y-102.9
X142.19Y-104.9
X142.19Y-106.9
X144.19Y-101.9
X144.19Y-103.9
X144.19Y-105.9
X144.19Y-107.9
X146.19Y-100.9
X146.19Y-102.9
X146.19Y-104.9
X146.19Y-106.9
X146.19Y-108.9
X158.3Y-100.9
X158.3Y-102.9
X158.3Y-104.9
X158.3Y-106.9
X158.3Y-108.9
X160.3Y-101.9
X160.3Y-103.9
X160.3Y-105.9
X160.3Y-107.9
X162.3Y-100.9
X162.3Y-102.9
X162.3Y-104.9
X162.3Y-106.9
X162.3Y-108.9
X164.3Y-101.9
X164.3Y-103.9
X164.3Y-105.9
X164.3Y-107.9
X166.3Y-100.9
X166.3Y-102.9
X166.3Y-104.9
X166.3Y-106.9
X166.3Y-108.9
X168.3Y-101.9
X168.3Y-103.9
X168.3Y-105.9
X170.3Y-100.9
X170.3Y-102.9
X170.3Y-104.9
X180.29Y-72.21
X180.29Y-73.21
X180.29Y-74.21
X195.77Y-101.9
X195.77Y-103.9
X197.77Y-100.9
X197.77Y-102.9
X197.77Y-104.9
X199.77Y-101.9
X199.77Y-103.9
X199.77Y-105.9
X199.77Y-107.9
X201.77Y-101.4
X201.77Y-102.9
X201.77Y-104.9
X201.77Y-106.9
X201.77Y-108.9
X203.77Y-101.9
X203.77Y-103.9
X203.77Y-105.9
X203.77Y-107.9
X205.77Y-100.9
X205.77Y-102.9
X205.77Y-104.9
X205.77Y-106.9
X205.77Y-108.9
X207.77Y-101.9
X207.77Y-103.9
X207.77Y-105.9
X207.77Y-107.9
X209.77Y-100.9
X209.77Y-102.9
X209.77Y-104.9
X209.77Y-106.9
X209.77Y-108.9
X211.77Y-101.9
X211.77Y-103.9
X211.77Y-105.9
X211.77Y-107.9
X213.77Y-100.9
X213.77Y-102.9
X213.77Y-104.9
X213.77Y-106.9
X225.8Y-100.9
X225.8Y-102.9
X225.8Y-104.9
X225.8Y-106.9
X225.8Y-108.9
X227.8Y-101.9
X227.8Y-103.9
X227.8Y-105.9
X227.8Y-107.9
X229.8Y-100.9
X229.8Y-102.9
X229.8Y-104.9
X229.8Y-106.9
X229.8Y-108.9
X231.8Y-101.9
X231.8Y-103.9
X231.8Y-105.9
X231.8Y-107.9
X233.8Y-100.9
X233.8Y-102.9
X233.8Y-104.9
X233.8Y-106.9
X233.8Y-108.9
X235.8Y-101.9
X235.8Y-103.9
X235.8Y-105.9
X237.8Y-100.9
X237.8Y-102.9
X237.8Y-104.9
X247.79Y-72.61
X247.83Y-73.6
X247.83Y-74.6
T3
X143.075Y-124.68
X143.725Y-125.68
X144.375Y-124.68
X145.025Y-125.68
X145.675Y-124.68
T4
X32.8Y-78.9
X32.8Y-79.9
X32.8Y-80.9
X32.8Y-81.9
X32.8Y-86.9
X32.8Y-87.9
X32.8Y-88.9
X32.8Y-89.9
X33.8Y-79.4
X33.8Y-80.4
X33.8Y-81.4
X33.8Y-87.4
X33.8Y-88.4
X33.8Y-89.4
X34.8Y-78.9
X34.8Y-79.9
X34.8Y-80.9
X34.8Y-81.9
X34.8Y-86.9
X34.8Y-87.9
X34.8Y-88.9
X34.8Y-89.9
X35.8Y-79.4
X35.8Y-80.4
X35.8Y-81.4
X35.8Y-87.4
X35.8Y-88.4
X35.8Y-89.4
X36.8Y-78.9
X36.8Y-79.9
X36.8Y-80.9
X36.8Y-81.9
X36.8Y-86.9
X36.8Y-87.9
X36.8Y-88.9
X36.8Y-89.9
X37.8Y-79.4
X37.8Y-80.4
X37.8Y-81.4
X37.8Y-87.4
X37.8Y-88.4
X37.8Y-89.4
X38.8Y-78.9
X38.8Y-79.9
X38.8Y-80.9
X38.8Y-81.9
X38.8Y-86.9
X38.8Y-87.9
X38.8Y-88.9
X38.8Y-89.9
X39.8Y-79.4
X39.8Y-80.4
X39.8Y-81.4
X39.8Y-87.4
X39.8Y-88.4
X39.8Y-89.4
X40.8Y-78.9
X40.8Y-79.9
X40.8Y-80.9
X40.8Y-81.9
X40.8Y-86.9
X40.8Y-87.9
X40.8Y-88.9
X40.8Y-89.9
X41.8Y-79.4
X41.8Y-80.4
X41.8Y-81.4
X41.8Y-87.4
X41.8Y-88.4
X41.8Y-89.4
X42.8Y-78.9
X42.8Y-79.9
X42.8Y-80.9
X42.8Y-81.9
X42.8Y-87.9
X42.8Y-88.9
X42.8Y-89.9
X43.8Y-79.4
X43.8Y-80.4
X43.8Y-81.4
X43.8Y-89.4
X44.8Y-78.9
X44.8Y-79.9
X44.8Y-80.9
X44.8Y-81.9
X44.8Y-89.9
X45.8Y-79.4
X45.8Y-80.4
X45.8Y-81.4
X46.8Y-78.9
X46.8Y-79.9
X46.8Y-80.9
X46.8Y-81.9
X47.8Y-79.4
X47.8Y-80.4
X47.8Y-81.4
X48.8Y-78.9
X48.8Y-79.9
X48.8Y-80.9
X48.8Y-81.9
X49.8Y-79.4
X49.8Y-80.4
X49.8Y-81.4
X51.8Y-86.9
X51.8Y-87.9
X51.8Y-88.9
X51.8Y-89.9
X52.8Y-87.4
X52.8Y-88.4
X52.8Y-89.4
X53.8Y-86.9
X53.8Y-87.9
X53.8Y-88.9
X53.8Y-89.9
X54.8Y-87.4
X54.8Y-88.4
X54.8Y-89.4
X55.8Y-86.9
X55.8Y-87.9
X55.8Y-88.9
X55.8Y-89.9
X114.65Y-86.9
X114.65Y-87.9
X114.65Y-88.9
X114.65Y-89.9
X114.65Y-90.9
X114.65Y-91.9
X115.55Y-87.4
X115.55Y-88.4
X115.55Y-89.4
X115.55Y-90.4
X115.55Y-91.4
X116.55Y-86.9
X116.55Y-87.9
X116.55Y-88.9
X116.55Y-89.9
X116.55Y-90.9
X116.55Y-91.9
X117.55Y-87.4
X117.55Y-88.4
X117.55Y-89.4
X117.55Y-90.4
X117.55Y-91.4
X119.3Y-78.9
X119.3Y-79.9
X119.3Y-80.9
X119.3Y-81.9
X120.3Y-79.4
X120.3Y-80.4
X120.3Y-81.4
X121.3Y-78.9
X121.3Y-79.9
X121.3Y-80.9
X121.3Y-81.9
X122.3Y-79.4
X122.3Y-80.4
X122.3Y-81.4
X123.3Y-78.9
X123.3Y-79.9
X123.3Y-80.9
X123.3Y-81.9
X182.15Y-86.9
X182.15Y-87.9
X182.15Y-88.9
X182.15Y-89.9
X182.15Y-90.9
X182.15Y-91.9
X183.05Y-87.4
X183.05Y-88.4
X183.05Y-89.4
X183.05Y-90.4
X183.05Y-91.4
X184.05Y-86.9
X184.05Y-87.9
X184.05Y-88.9
X184.05Y-89.9
X184.05Y-90.9
X184.05Y-91.9
X185.05Y-87.4
X185.05Y-88.4
X185.05Y-89.4
X185.05Y-90.4
X185.05Y-91.4
X186.8Y-78.9
X186.8Y-79.9
X186.8Y-80.9
X186.8Y-81.9
X187.8Y-79.4
X187.8Y-80.4
X187.8Y-81.4
X188.8Y-78.9
X188.8Y-79.9
X188.8Y-80.9
X188.8Y-81.9
X189.8Y-79.4
X189.8Y-80.4
X189.8Y-81.4
X190.8Y-78.9
X190.8Y-79.9
X190.8Y-80.9
X190.8Y-81.9
X249.65Y-86.9
X249.65Y-87.9
X249.65Y-88.9
X249.65Y-89.9
X249.65Y-90.9
X249.65Y-91.9
X250.55Y-87.4
X250.55Y-88.4
X250.55Y-89.4
X250.55Y-90.4
X250.55Y-91.4
X251.55Y-86.9
X251.55Y-87.9
X251.55Y-88.9
X251.55Y-89.9
X251.55Y-90.9
X251.55Y-91.9
X252.55Y-87.4
X252.55Y-88.4
X252.55Y-89.4
X252.55Y-90.4
X252.55Y-91.4
X254.3Y-78.9
X254.3Y-79.9
X254.3Y-80.9
X254.3Y-81.9
X255.3Y-79.4
X255.3Y-80.4
X255.3Y-81.4
X256.3Y-78.9
X256.3Y-79.9
X256.3Y-80.9
X256.3Y-81.9
X257.3Y-79.4
X257.3Y-80.4
X257.3Y-81.4
X258.3Y-78.9
X258.3Y-79.9
X258.3Y-80.9
X258.3Y-81.9
X116.9Y-64.4
X117.603Y-62.703
X117.603Y-66.097
X119.3Y-62.0
X119.3Y-66.8
X120.997Y-62.703
X120.997Y-66.097
X121.7Y-64.4
X50.9Y-64.4
X51.603Y-62.703
X51.603Y-66.097
X53.3Y-62.0
X53.3Y-66.8
X54.997Y-62.703
X54.997Y-66.097
X55.7Y-64.4
X248.4Y-64.4
X249.103Y-62.703
X249.103Y-66.097
X250.8Y-62.0
X250.8Y-66.8
X252.497Y-62.703
X252.497Y-66.097
X253.2Y-64.4
X82.9Y-114.4
X83.603Y-112.703
X83.603Y-116.097
X85.3Y-112.0
X85.3Y-116.8
X86.997Y-112.703
X86.997Y-116.097
X87.7Y-114.4
X183.9Y-64.4
X184.603Y-62.703
X184.603Y-66.097
X186.3Y-62.0
X186.3Y-66.8
X187.997Y-62.703
X187.997Y-66.097
X188.7Y-64.4
X256.4Y-123.9
X257.103Y-122.203
X257.103Y-125.597
X258.8Y-121.5
X258.8Y-126.3
X260.497Y-122.203
X260.497Y-125.597
X261.2Y-123.9
X217.4Y-113.4
X218.103Y-111.703
X218.103Y-115.097
X219.8Y-111.0
X219.8Y-115.8
X221.497Y-111.703
X221.497Y-115.097
X222.2Y-113.4
X33.9Y-123.9
X34.603Y-122.203
X34.603Y-125.597
X36.3Y-121.5
X36.3Y-126.3
X37.997Y-122.203
X37.997Y-125.597
X38.7Y-123.9
X149.9Y-113.4
X150.603Y-111.703
X150.603Y-115.097
X152.3Y-111.0
X152.3Y-115.8
X153.997Y-111.703
X153.997Y-115.097
X154.7Y-113.4
T5
X113.625Y-104.8
X116.55Y-100.15
X116.55Y-101.4
X117.8Y-100.15
X117.8Y-101.4
X119.975Y-104.75
X181.125Y-104.425
X184.05Y-100.15
X184.05Y-101.4
X185.3Y-100.15
X185.3Y-101.4
X187.425Y-104.625
X248.63Y-105.18
X251.55Y-100.65
X251.55Y-101.9
X252.8Y-100.65
X252.8Y-101.9
X255.03Y-105.28
X34.55Y-73.4
X34.7Y-71.9
X34.7Y-74.9
X35.05Y-70.65
X35.05Y-76.15
X36.3Y-69.9
X36.3Y-76.9
X37.8Y-69.4
X37.8Y-77.4
X39.3Y-69.9
X39.3Y-76.9
X40.55Y-70.65
X40.55Y-76.15
X40.9Y-71.9
X40.9Y-74.9
X41.05Y-73.4
X216.3Y-68.4
X216.45Y-66.9
X216.45Y-69.9
X216.8Y-65.65
X216.8Y-71.15
X218.05Y-64.9
X218.05Y-71.9
X219.55Y-64.4
X219.55Y-72.4
X221.05Y-64.9
X221.05Y-71.9
X222.3Y-65.65
X222.3Y-71.15
X222.65Y-66.9
X222.65Y-69.9
X222.8Y-68.4
X34.55Y-96.4
X34.7Y-94.9
X34.7Y-97.9
X35.05Y-93.65
X35.05Y-99.15
X36.3Y-92.9
X36.3Y-99.9
X37.8Y-92.4
X37.8Y-100.4
X39.3Y-92.9
X39.3Y-99.9
X40.55Y-93.65
X40.55Y-99.15
X40.9Y-94.9
X40.9Y-97.9
X41.05Y-96.4
X148.8Y-68.4
X148.95Y-66.9
X148.95Y-69.9
X149.3Y-65.65
X149.3Y-71.15
X150.55Y-64.9
X150.55Y-71.9
X152.05Y-64.4
X152.05Y-72.4
X153.55Y-64.9
X153.55Y-71.9
X154.8Y-65.65
X154.8Y-71.15
X155.15Y-66.9
X155.15Y-69.9
X155.3Y-68.4
X81.3Y-68.9
X81.45Y-67.4
X81.45Y-70.4
X81.8Y-66.15
X81.8Y-71.65
X83.05Y-65.4
X83.05Y-72.4
X84.55Y-64.9
X84.55Y-72.9
X86.05Y-65.4
X86.05Y-72.4
X87.3Y-66.15
X87.3Y-71.65
X87.65Y-67.4
X87.65Y-70.4
X87.8Y-68.9
T6
X216.3Y-83.9
X223.686Y-85.202
X182.3Y-95.4
X189.8Y-95.4
X104.8Y-119.9
X104.8Y-122.44
X104.8Y-124.98
X47.3Y-76.4
X54.8Y-76.4
X108.8Y-119.9
X108.8Y-122.44
X108.8Y-124.98
X249.8Y-76.9
X257.3Y-76.9
X114.8Y-76.9
X122.3Y-76.9
X43.8Y-125.775
X46.34Y-125.775
X129.3Y-124.9
X131.84Y-124.9
X134.38Y-124.9
X136.92Y-124.9
X113.3Y-120.9
X115.84Y-120.9
X118.38Y-120.9
X120.92Y-120.9
X123.46Y-120.9
X126.0Y-120.9
X249.8Y-95.4
X257.3Y-95.4
X182.3Y-76.9
X189.8Y-76.9
X81.3Y-83.9
X88.686Y-85.202
X100.8Y-119.9
X100.8Y-122.44
X100.8Y-124.98
X113.3Y-124.9
X115.84Y-124.9
X118.38Y-124.9
X120.92Y-124.9
X123.46Y-124.9
X47.3Y-94.9
X54.8Y-94.9
X88.55Y-125.15
X91.09Y-125.15
X93.63Y-125.15
X114.8Y-95.4
X122.3Y-95.4
X148.8Y-83.4
X156.186Y-84.702
X183.05Y-125.4
X185.59Y-125.4
X188.13Y-125.4
X190.67Y-125.4
X193.21Y-125.4
T7
X72.3Y-73.4
X74.84Y-73.4
X77.38Y-73.4
X92.22Y-95.4
X94.76Y-95.4
X97.3Y-95.4
X92.3Y-73.4
X94.84Y-73.4
X97.38Y-73.4
X227.22Y-95.4
X229.76Y-95.4
X232.3Y-95.4
X103.22Y-95.4
X105.76Y-95.4
X108.3Y-95.4
X139.8Y-73.4
X142.34Y-73.4
X144.88Y-73.4
X129.22Y-95.4
X131.76Y-95.4
X134.3Y-95.4
X207.3Y-73.4
X209.84Y-73.4
X212.38Y-73.4
X102.83Y-73.4
X105.37Y-73.4
X107.91Y-73.4
X129.3Y-73.4
X131.84Y-73.4
X134.38Y-73.4
X207.3Y-95.4
X209.84Y-95.4
X212.38Y-95.4
X159.8Y-73.4
X162.34Y-73.4
X164.88Y-73.4
X72.33Y-95.4
X74.87Y-95.4
X77.41Y-95.4
X170.22Y-95.4
X172.76Y-95.4
X175.3Y-95.4
X196.72Y-73.4
X199.26Y-73.4
X201.8Y-73.4
X227.22Y-73.4
X229.76Y-73.4
X232.3Y-73.4
X159.72Y-95.4
X162.26Y-95.4
X164.8Y-95.4
X237.72Y-95.4
X240.26Y-95.4
X242.8Y-95.4
X61.8Y-73.4
X64.34Y-73.4
X66.88Y-73.4
X237.8Y-73.4
X240.34Y-73.4
X242.88Y-73.4
X139.72Y-95.4
X142.26Y-95.4
X144.8Y-95.4
X61.72Y-95.4
X64.26Y-95.4
X66.8Y-95.4
X170.3Y-73.4
X172.84Y-73.4
X175.38Y-73.4
X196.72Y-95.4
X199.26Y-95.4
X201.8Y-95.4
T8
X237.3Y-76.9
X237.3Y-91.9
X135.55Y-76.9
X135.55Y-91.9
X203.05Y-76.9
X203.05Y-91.9
X169.8Y-76.9
X169.8Y-91.9
X68.05Y-76.9
X68.05Y-91.9
X102.3Y-76.9
X102.3Y-91.9
T9
X140.8Y-124.9
X147.95Y-124.9
T10
X78.8Y-119.15
X78.8Y-124.15
T11
X53.3Y-64.4
X250.8Y-64.4
X85.3Y-114.4
X186.3Y-64.4
X258.8Y-123.9
X219.8Y-113.4
X36.3Y-123.9
X152.3Y-113.4
X119.3Y-64.4
T12
X37.8Y-73.4
X219.55Y-68.4
X37.8Y-96.4
X152.05Y-68.4
X84.55Y-68.9
T0
M30
